<svg width="640" height="240" viewBox="0 0 640 240" fill="none" xmlns="http://www.w3.org/2000/svg" role="img" aria-labelledby="title desc">
  <title id="title">SyncDocs logo</title>
  <desc id="desc">Blue and violet circular sync mark with document icon and SyncDocs text.</desc>
  <defs>
    <linearGradient id="g1" x1="0" y1="0" x2="1" y2="1">
      <stop offset="0%" stop-color="#19B6F3" />
      <stop offset="100%" stop-color="#5221C8" />
    </linearGradient>
    <linearGradient id="g2" x1="0" y1="0" x2="0" y2="1">
      <stop offset="0%" stop-color="#2A88E6" />
      <stop offset="100%" stop-color="#1E4FB9" />
    </linearGradient>
  </defs>

  <g transform="translate(20 20)">
    <path d="M95 10C132 10 165 28 186 57" stroke="url(#g1)" stroke-width="14" stroke-linecap="round"/>
    <path d="M186 57L177 34L203 48" fill="url(#g1)"/>
    <path d="M185 133C162 165 126 182 87 179" stroke="url(#g1)" stroke-width="14" stroke-linecap="round"/>
    <path d="M87 179L108 182L92 202" fill="url(#g1)"/>

    <rect x="62" y="42" width="88" height="112" rx="10" fill="#EEF4FF" stroke="#195DBA" stroke-width="6"/>
    <path d="M136 42V65H159" fill="#EEF4FF"/>
    <path d="M136 42L159 65" stroke="#195DBA" stroke-width="6"/>
    <line x1="78" y1="84" x2="132" y2="84" stroke="#2B64D9" stroke-width="6" stroke-linecap="round"/>
    <line x1="78" y1="102" x2="132" y2="102" stroke="#2B64D9" stroke-width="6" stroke-linecap="round"/>

    <circle cx="56" cy="82" r="14" fill="#F6FAFF" stroke="#1E64CA" stroke-width="5"/>
    <circle cx="145" cy="140" r="14" fill="#F6FAFF" stroke="#4D38CF" stroke-width="5"/>
    <circle cx="188" cy="86" r="14" fill="#F6FAFF" stroke="#2D79E3" stroke-width="5"/>

    <path d="M70 92L92 122" stroke="#1D70D3" stroke-width="5"/>
    <path d="M92 122L176 100" stroke="#4D35CC" stroke-width="5"/>
  </g>

  <text x="250" y="150" font-family="'Space Grotesk', Arial, sans-serif" font-size="74" font-weight="700" fill="url(#g2)">SyncDocs</text>
</svg>
